<svg width="46" height="52" viewBox="0 0 46 52" fill="none" xmlns="http://www.w3.org/2000/svg">
<path d="M3.9181 44.319C3.87614 44.3015 3.84033 44.2867 3.80451 44.2867H3.54511C3.50837 44.2867 3.48724 44.2867 3.46845 44.28C3.44303 44.271 3.4219 44.2498 3.37218 44.2C3.31189 44.2604 3.20957 44.2366 3.12384 44.2166C3.0866 44.2079 3.0525 44.2 3.02632 44.2C2.98309 44.2 2.91826 44.2217 2.85343 44.2433C2.78859 44.265 2.72367 44.2867 2.68045 44.2867C2.63723 44.2867 2.5724 44.265 2.50756 44.2433C2.44273 44.2217 2.37781 44.2 2.33459 44.2H1.98872C1.92267 44.1669 1.86923 44.1464 1.82359 44.129C1.74974 44.1007 1.6963 44.0802 1.64286 44.0267L1.12406 43.5067C1.08083 43.4633 1.05921 43.42 1.03759 43.3767C1.01598 43.3333 0.994361 43.29 0.951128 43.2467C0.951128 43.16 0.951128 42.9867 0.864662 42.9C0.778196 42.8133 0.778196 42.64 0.778196 42.5533C0.778196 42.51 0.756579 42.445 0.734962 42.38C0.713346 42.315 0.691729 42.25 0.691729 42.2067C0.691729 42.1633 0.648496 42.12 0.605263 42.0767C0.56203 42.0333 0.518797 41.99 0.518797 41.9467C0.485769 41.8805 0.452742 41.8269 0.424533 41.7811C0.378891 41.7071 0.345865 41.6536 0.345865 41.6C0.285578 41.5396 0.309358 41.437 0.329285 41.3511C0.337938 41.3138 0.345865 41.2796 0.345865 41.2533C0.312845 41.1871 0.279824 41.1336 0.25162 41.0878C0.205977 41.0138 0.172932 40.9602 0.172932 40.9067V40.56C0.172932 40.4585 0.113591 40.3867 0.0644311 40.3272C0.0296702 40.2851 0 40.2492 0 40.2133V39.8667C0 39.8233 0.0216165 39.7583 0.0432331 39.6933C0.0648496 39.6283 0.0864662 39.5633 0.0864662 39.52V38.8267C0.0864662 38.7251 0.116137 38.6533 0.140717 38.5939C0.158097 38.5518 0.172932 38.5159 0.172932 38.48C0.172932 38.3785 0.113591 38.3067 0.0644311 38.2472C0.0296702 38.2051 0 38.1692 0 38.1333V38.0467C0 38.0033 0.0432331 37.9383 0.0864662 37.8733C0.129699 37.8083 0.172932 37.7433 0.172932 37.7C0.172932 37.6567 0.151316 37.5917 0.129699 37.5267C0.108083 37.4617 0.0864662 37.3967 0.0864662 37.3533C0.0864662 37.31 0.108083 37.245 0.129699 37.18C0.151316 37.115 0.172932 37.05 0.172932 37.0067C0.172932 36.9633 0.151316 36.8983 0.129699 36.8333C0.108083 36.7683 0.0864662 36.7033 0.0864662 36.66C0.0864662 36.6167 0.108083 36.5517 0.129699 36.4867C0.151316 36.4217 0.172932 36.3567 0.172932 36.3133V35.9667C0.172932 35.9233 0.194549 35.8583 0.216165 35.7933C0.237782 35.7283 0.259398 35.6633 0.259398 35.62C0.259398 35.5767 0.237782 35.5117 0.216165 35.4467C0.194549 35.3817 0.172932 35.3167 0.172932 35.2733V34.9267C0.172932 34.8833 0.194549 34.8183 0.216165 34.7533C0.237782 34.6883 0.259398 34.6233 0.259398 34.58V34.2333C0.259398 34.19 0.302632 34.125 0.345865 34.06C0.389098 33.995 0.432331 33.93 0.432331 33.8867V33.54C0.432331 33.4967 0.453947 33.4317 0.475564 33.3667C0.497181 33.3017 0.518797 33.2367 0.518797 33.1933C0.518797 33.02 0.432331 32.9333 0.345865 32.9333C0.345865 32.89 0.367481 32.825 0.389098 32.76C0.410714 32.695 0.432331 32.63 0.432331 32.5867V32.24C0.432331 32.1967 0.453947 32.1317 0.475564 32.0667C0.497181 32.0017 0.518797 31.9367 0.518797 31.8933V31.5467C0.518797 31.5033 0.540414 31.4383 0.56203 31.3733C0.583647 31.3083 0.605263 31.2433 0.605263 31.2C0.605263 31.0985 0.664605 31.0267 0.713765 30.9672C0.748525 30.9251 0.778196 30.8892 0.778196 30.8533C0.778196 30.81 0.756579 30.745 0.734962 30.68C0.713346 30.615 0.691729 30.55 0.691729 30.5067C0.691729 30.4051 0.751071 30.3333 0.800231 30.2738C0.834992 30.2318 0.864662 30.1959 0.864662 30.16C0.924948 30.0996 0.901168 29.997 0.881241 29.9111C0.872588 29.8738 0.864662 29.8396 0.864662 29.8133C0.864662 29.77 0.886278 29.705 0.907895 29.64C0.929511 29.575 0.951128 29.51 0.951128 29.4667C0.984148 29.4005 1.01717 29.3469 1.04537 29.3012C1.09102 29.2272 1.12406 29.1736 1.12406 29.12C1.12406 29.0767 1.10244 29.0117 1.08083 28.9467C1.05921 28.8817 1.03759 28.8167 1.03759 28.7733C1.03759 28.73 1.05921 28.665 1.08083 28.6C1.10244 28.535 1.12406 28.47 1.12406 28.4267C1.12406 28.3251 1.1834 28.2533 1.23256 28.1939C1.26732 28.1518 1.29699 28.1159 1.29699 28.08C1.38346 27.9933 1.38346 27.82 1.38346 27.7333C1.38346 27.69 1.40508 27.625 1.42669 27.56C1.44831 27.495 1.46992 27.43 1.46992 27.3867C1.46992 27.3433 1.49154 27.2783 1.51316 27.2133C1.53477 27.1483 1.55639 27.0833 1.55639 27.04C1.64286 26.9533 1.64286 26.78 1.64286 26.6933C1.64286 26.65 1.66447 26.585 1.68609 26.52C1.70771 26.455 1.72932 26.39 1.72932 26.3467C1.72932 26.3033 1.75094 26.2383 1.77256 26.1733C1.79417 26.1083 1.81579 26.0433 1.81579 26C1.84882 25.9338 1.88184 25.8802 1.91005 25.8345C1.9557 25.7605 1.98872 25.7069 1.98872 25.6533V25.3067C1.98872 25.2051 2.04806 25.1333 2.09722 25.0739C2.13198 25.0318 2.16165 24.9959 2.16165 24.96C2.24812 24.8733 2.24812 24.7 2.24812 24.6133C2.24812 24.57 2.26974 24.505 2.29135 24.44C2.31297 24.375 2.33459 24.31 2.33459 24.2667C2.33459 24.1651 2.39393 24.0933 2.44309 24.0339C2.47785 23.9918 2.50752 23.9559 2.50752 23.92C2.54055 23.8538 2.57357 23.8002 2.60178 23.7545C2.64742 23.6805 2.68045 23.6269 2.68045 23.5733C2.76692 23.4867 2.76692 23.3133 2.76692 23.2267V22.88L3.02632 22.62C3.05934 22.5538 3.07975 22.5002 3.09719 22.4545C3.1254 22.3805 3.14581 22.3269 3.19925 22.2733C3.19925 22.1867 3.19925 22.0133 3.28571 21.9267C3.28571 21.84 3.28571 21.6667 3.37218 21.58C3.37218 21.4067 3.45865 21.32 3.54511 21.2333C3.58835 21.19 3.58835 21.125 3.58835 21.06C3.58835 20.995 3.58835 20.93 3.63158 20.8867L3.89098 20.6267C3.92401 20.5605 3.94442 20.5069 3.96185 20.4611C3.99006 20.3871 4.01047 20.3336 4.06391 20.28C4.06391 20.1933 4.15038 20.1067 4.23684 20.02C4.28008 19.9767 4.30169 19.9117 4.32331 19.8467C4.34493 19.7817 4.36654 19.7167 4.40977 19.6733C4.40977 19.5867 4.40977 19.4133 4.49624 19.3267C4.53947 19.2833 4.56109 19.2183 4.58271 19.1533C4.60432 19.0883 4.62594 19.0233 4.66917 18.98C4.7022 18.9138 4.72261 18.8602 4.74005 18.8145C4.76825 18.7405 4.78867 18.6869 4.84211 18.6333C4.84211 18.5467 4.92857 18.46 5.01504 18.3733C5.01504 18.2867 5.1015 18.2 5.18797 18.1133C5.18797 18.0267 5.27444 17.94 5.3609 17.8533C5.39393 17.7871 5.41434 17.7336 5.43178 17.6878C5.45998 17.6138 5.4804 17.5602 5.53383 17.5067C5.57707 17.4633 5.57707 17.3983 5.57707 17.3333C5.57707 17.2683 5.57707 17.2033 5.6203 17.16L5.8797 16.9C5.92293 16.8567 5.92293 16.7917 5.92293 16.7267C5.92293 16.6617 5.92293 16.5967 5.96617 16.5533C6.02044 16.4445 6.10879 16.404 6.18843 16.3675C6.23567 16.3458 6.27984 16.3256 6.31203 16.2933C6.31203 16.2319 6.30118 16.1705 6.29101 16.113C6.27247 16.0081 6.25619 15.916 6.31203 15.86C6.31203 15.7627 6.36656 15.72 6.42969 15.6706C6.47899 15.632 6.53352 15.5893 6.57143 15.5133C6.61466 15.47 6.61466 15.405 6.61466 15.34C6.61466 15.275 6.61466 15.21 6.6579 15.1667C6.70113 15.1233 6.72274 15.08 6.74436 15.0367C6.76598 14.9933 6.7876 14.95 6.83083 14.9067L7.09023 14.6467C7.09023 14.56 7.09023 14.3867 7.17669 14.3L7.43609 14.04C7.52256 13.9533 7.60902 13.8667 7.86842 13.6933C7.90145 13.6271 7.92186 13.5736 7.9393 13.5278C7.9675 13.4538 7.98792 13.4002 8.04136 13.3467C8.08459 13.3033 8.14944 13.2817 8.21429 13.26C8.27914 13.2383 8.34399 13.2167 8.38722 13.1733C8.43045 13.13 8.43045 13.065 8.43045 13C8.43045 12.935 8.43045 12.87 8.47369 12.8267C8.51692 12.7833 8.53853 12.74 8.56015 12.6967C8.58177 12.6533 8.60338 12.61 8.64662 12.5667C8.64662 12.518 8.70115 12.4967 8.76428 12.472C8.81357 12.4527 8.8681 12.4313 8.90602 12.3933C8.90602 12.3067 8.90602 12.1333 8.99248 12.0467C9.03572 12.0033 9.10057 11.9817 9.16541 11.96C9.23026 11.9383 9.29511 11.9167 9.33835 11.8733C9.38158 11.83 9.38158 11.765 9.38158 11.7C9.38158 11.635 9.38158 11.57 9.42481 11.5267C9.48246 11.4111 9.5401 11.3726 9.59775 11.3341C9.62657 11.3148 9.65539 11.2956 9.68421 11.2667C9.72745 11.2233 9.74906 11.18 9.77068 11.1367C9.7923 11.0933 9.81391 11.05 9.85714 11.0067L10.3759 10.4867C10.4192 10.4433 10.4408 10.4 10.4624 10.3567C10.484 10.3133 10.5056 10.27 10.5489 10.2267L10.8083 9.96667C10.8515 9.92333 10.8731 9.85833 10.8947 9.79333C10.9164 9.72833 10.938 9.66333 10.9812 9.62C11.0244 9.57667 11.0461 9.53333 11.0677 9.49C11.0893 9.44667 11.1109 9.40333 11.1541 9.36L11.6729 8.84C11.7162 8.79667 11.7378 8.73167 11.7594 8.66667C11.781 8.60167 11.8026 8.53667 11.8459 8.49333L12.1053 8.23333C12.1485 8.19 12.2133 8.16833 12.2782 8.14667C12.343 8.125 12.4079 8.10333 12.4511 8.06L12.7105 7.8C12.7538 7.75667 12.7754 7.69167 12.797 7.62667C12.8186 7.56167 12.8402 7.49667 12.8835 7.45333C12.9267 7.41 12.9699 7.38833 13.0132 7.36667C13.0564 7.345 13.0996 7.32333 13.1429 7.28C13.1861 7.23667 13.2293 7.215 13.2726 7.19333C13.3158 7.17167 13.359 7.15 13.4023 7.10667L13.7481 6.76C13.7914 6.71667 13.813 6.67333 13.8346 6.63C13.8562 6.58667 13.8778 6.54333 13.9211 6.5C14.0075 6.5 14.094 6.41333 14.1805 6.32667C14.2669 6.32667 14.3534 6.24 14.4399 6.15333L14.9586 5.63333C15.0019 5.59 15.0667 5.56833 15.1316 5.54667C15.1964 5.525 15.2613 5.50333 15.3045 5.46C15.391 5.46 15.4774 5.37333 15.5639 5.28667C15.6792 5.28667 15.7176 5.20963 15.7561 5.13259C15.7753 5.09407 15.7945 5.05556 15.8233 5.02667L16.0827 4.76667C16.1259 4.72333 16.1908 4.72333 16.2556 4.72333C16.3205 4.72333 16.3853 4.72333 16.4286 4.68C16.4718 4.63667 16.4934 4.57167 16.515 4.50667C16.5367 4.44167 16.5583 4.37667 16.6015 4.33333C16.6447 4.29 16.7096 4.26833 16.7744 4.24667C16.8393 4.225 16.9041 4.20333 16.9474 4.16L17.2068 3.9C17.2932 3.9 17.3797 3.81333 17.4662 3.72667C17.5526 3.72667 17.7256 3.72667 17.812 3.64C17.8985 3.55333 17.985 3.46667 18.0714 3.55333C18.1147 3.51 18.1795 3.48833 18.2444 3.46667C18.3092 3.445 18.3741 3.42333 18.4173 3.38L18.6767 3.12C18.7199 3.07667 18.7848 3.055 18.8496 3.03333C18.9145 3.01167 18.9793 2.99 19.0226 2.94667C19.0658 2.90333 19.1306 2.88167 19.1955 2.86C19.2603 2.83833 19.3252 2.81667 19.3684 2.77333C19.4549 2.68667 19.5414 2.6 19.6278 2.6C19.6939 2.5669 19.7473 2.54644 19.793 2.52896C19.8668 2.50069 19.9202 2.48023 19.9737 2.42667C20.0397 2.39356 20.0932 2.3731 20.1388 2.35563C20.2127 2.32736 20.2661 2.3069 20.3196 2.25333C20.3628 2.21 20.4276 2.21 20.4925 2.21C20.5573 2.21 20.6222 2.21 20.6654 2.16667L20.9248 1.90667C20.968 1.86333 21.0329 1.86333 21.0977 1.86333C21.1626 1.86333 21.2274 1.86333 21.2707 1.82C21.2995 1.82 21.3283 1.80074 21.3668 1.77506C21.4436 1.7237 21.5589 1.64667 21.7895 1.64667H22.1353C22.1786 1.64667 22.2434 1.625 22.3083 1.60333C22.3731 1.58167 22.438 1.56 22.4812 1.56C22.5244 1.56 22.5893 1.53833 22.6541 1.51667C22.719 1.495 22.7838 1.47333 22.8271 1.47333C22.9135 1.38667 23.0865 1.3 23.1729 1.3C23.2162 1.3 23.281 1.27833 23.3459 1.25667C23.4107 1.235 23.4756 1.21333 23.5188 1.21333H23.8647C23.9079 1.21333 23.9727 1.19167 24.0376 1.17C24.1024 1.14833 24.1673 1.12667 24.2105 1.12667C24.297 1.04 24.4699 1.04 24.5564 1.04C24.6429 0.996667 24.7077 0.931667 24.7618 0.8775C24.8158 0.823333 24.859 0.78 24.9023 0.78C24.9455 0.78 25.0103 0.758333 25.0752 0.736667C25.14 0.715 25.2049 0.693333 25.2481 0.693333C25.3084 0.632907 25.4107 0.656742 25.4965 0.676715C25.5337 0.685388 25.5678 0.693333 25.594 0.693333C25.6372 0.693333 25.7021 0.671667 25.7669 0.65C25.8318 0.628333 25.8966 0.606667 25.9399 0.606667H26.2857C26.3722 0.52 26.5451 0.433333 26.6316 0.433333C26.718 0.346667 26.891 0.346667 26.9774 0.346667C27.0207 0.346667 27.0855 0.325 27.1504 0.303333C27.2152 0.281667 27.2801 0.26 27.3233 0.26C27.4098 0.173333 27.5827 0.173333 27.6692 0.173333H28.015C28.0753 0.112907 28.1776 0.136742 28.2634 0.156715C28.3006 0.165388 28.3347 0.173333 28.3609 0.173333C28.4041 0.173333 28.469 0.151667 28.5338 0.13C28.5987 0.108333 28.6635 0.0866667 28.7068 0.0866667C28.7671 0.0262404 28.8694 0.0500757 28.9551 0.0700485C28.9923 0.0787218 29.0265 0.0866667 29.0526 0.0866667H29.3985C29.4417 0.0866667 29.5066 0.065 29.5714 0.0433333C29.6363 0.0216667 29.7011 0 29.7444 0C29.7876 0 29.8524 0.0216667 29.9173 0.0433333C29.9821 0.065 30.047 0.0866667 30.0902 0.0866667H30.4361C30.4793 0.0866667 30.5442 0.065 30.609 0.0433333C30.6739 0.0216667 30.7387 0 30.782 0C30.8252 0 30.89 0.0433333 30.9549 0.0866667C31.0197 0.13 31.0846 0.173333 31.1278 0.173333C31.1711 0.173333 31.2359 0.195 31.3008 0.216667C31.3656 0.238333 31.4305 0.26 31.4737 0.26C31.5169 0.26 31.5818 0.238333 31.6466 0.216667C31.7115 0.195 31.7763 0.173333 31.8196 0.173333C31.8628 0.173333 31.9276 0.195 31.9925 0.216667C32.0573 0.238333 32.1222 0.26 32.1654 0.26C32.2086 0.26 32.2735 0.303333 32.3383 0.346667C32.4032 0.39 32.468 0.433333 32.5113 0.433333C32.5977 0.52 32.7707 0.52 32.8571 0.52C32.9004 0.52 32.9652 0.498333 33.0301 0.476667C33.0949 0.455 33.1598 0.433333 33.203 0.433333C33.2462 0.433333 33.3111 0.455 33.3759 0.476667C33.4408 0.498333 33.5056 0.52 33.5489 0.52C33.5921 0.52 33.657 0.541667 33.7218 0.563333C33.7867 0.585 33.8515 0.606667 33.8947 0.606667H34.2406C34.2838 0.606667 34.3487 0.628333 34.4135 0.65C34.4784 0.671667 34.5432 0.693333 34.5865 0.693333C34.6297 0.693333 34.6945 0.715 34.7594 0.736667C34.8242 0.758333 34.8891 0.78 34.9323 0.78C35.0188 0.866667 35.1917 0.866667 35.2782 0.866667C35.3443 0.899771 35.3977 0.932875 35.4433 0.961149C35.5172 1.0069 35.5706 1.04 35.6241 1.04C35.6901 1.0731 35.7435 1.10619 35.7892 1.13446C35.863 1.18021 35.9165 1.21333 35.9699 1.21333C36.0302 1.27376 36.1325 1.24992 36.2183 1.22995C36.2555 1.22128 36.2896 1.21333 36.3158 1.21333C36.3818 1.24644 36.4353 1.27954 36.4809 1.30782C36.5548 1.35356 36.6082 1.38667 36.6617 1.38667C36.8346 1.38667 36.9211 1.47333 37.0075 1.56C37.0508 1.60333 37.1156 1.60333 37.1805 1.60333C37.2453 1.60333 37.3102 1.60333 37.3534 1.64667C37.4398 1.64667 37.5263 1.73333 37.6128 1.82C37.656 1.86333 37.7209 1.885 37.7857 1.90667C37.8506 1.92833 37.9154 1.95 37.9586 1.99333L38.4774 2.51333C38.5207 2.55667 38.5855 2.57833 38.6504 2.6C38.7152 2.62167 38.7801 2.64333 38.8233 2.68667L39.0827 2.94667C39.1259 2.99 39.1908 3.01167 39.2556 3.03333C39.3205 3.055 39.3853 3.07667 39.4286 3.12L39.9474 3.64C39.9906 3.68333 40.0122 3.74833 40.0338 3.81333C40.0555 3.87833 40.0771 3.94333 40.1203 3.98667C40.1635 4.03 40.2284 4.05167 40.2932 4.07333C40.3581 4.095 40.4229 4.11667 40.4662 4.16C40.495 4.18889 40.5334 4.21778 40.5718 4.24667C40.6487 4.30444 40.7256 4.36222 40.7256 4.42C40.7256 4.42 40.812 4.59333 41.3308 4.59333C41.3741 4.63667 41.3957 4.70167 41.4173 4.76667C41.4389 4.83167 41.4605 4.89667 41.5038 4.94C41.5038 5.02667 41.5038 5.2 41.5902 5.28667L42.109 5.80667C42.109 5.89333 42.109 6.06667 42.1955 6.15333C42.1955 6.32667 42.282 6.41333 42.3684 6.5C42.3684 6.54332 42.39 6.6083 42.4116 6.67329C42.4333 6.73827 42.4549 6.80334 42.4549 6.84667C42.5152 6.90709 42.4914 7.00965 42.4715 7.09559C42.4628 7.13291 42.4549 7.16709 42.4549 7.19333C42.4549 7.21957 42.4628 7.25376 42.4715 7.29108C42.4914 7.37702 42.5152 7.47957 42.4549 7.54C42.3684 7.62667 42.282 7.62667 42.109 7.62667C42.0658 7.62667 42.0009 7.605 41.9361 7.58333C41.8712 7.56167 41.8064 7.54 41.7632 7.54H41.0714C40.985 7.45333 40.812 7.45333 40.7256 7.45333C40.6391 7.36667 40.4662 7.36667 40.3797 7.36667C40.3365 7.32333 40.3365 7.345 40.3365 7.3775C40.3365 7.41 40.3365 7.45333 40.2932 7.45333C40.25 7.45333 40.1203 7.43167 39.9906 7.41C39.8609 7.38833 39.7312 7.36667 39.688 7.36667C39.6447 7.36667 39.5799 7.345 39.515 7.32333C39.4502 7.30167 39.3853 7.28 39.3421 7.28C39.2989 7.28 39.2556 7.30167 39.2124 7.32333C39.1692 7.345 39.1259 7.36667 39.0827 7.36667H38.6504C38.5639 7.45333 38.391 7.45333 38.3045 7.45333H37.6128C37.5115 7.45333 37.4399 7.48307 37.3805 7.50771C37.3386 7.52513 37.3027 7.54 37.2669 7.54H36.9211C36.8198 7.54 36.7481 7.56974 36.6888 7.59438C36.6468 7.6118 36.611 7.62667 36.5752 7.62667H36.2293C36.1429 7.71333 35.9699 7.8 35.8835 7.8H35.1917C35.1053 7.88667 34.9323 7.97333 34.8459 7.97333C34.7856 8.03376 34.6833 8.00992 34.5975 7.98995C34.5603 7.98128 34.5262 7.97333 34.5 7.97333C34.4339 8.00644 34.3805 8.03954 34.3349 8.06782C34.261 8.11356 34.2076 8.14667 34.1541 8.14667C34.1109 8.14667 34.0461 8.16833 33.9812 8.19C33.9164 8.21167 33.8515 8.23333 33.8083 8.23333H33.4624C33.4192 8.23333 33.3543 8.255 33.2895 8.27667C33.2246 8.29833 33.1598 8.32 33.1165 8.32C33.0505 8.35309 32.9971 8.38619 32.9514 8.41446C32.8776 8.46021 32.8241 8.49333 32.7707 8.49333C32.6694 8.49333 32.5977 8.55281 32.5384 8.60209C32.4964 8.63693 32.4606 8.66667 32.4248 8.66667C32.3384 8.75333 32.1654 8.75333 32.0789 8.75333C32.0357 8.75333 31.9709 8.775 31.906 8.79667C31.8412 8.81833 31.7763 8.84 31.7331 8.84C31.6466 8.92667 31.4737 8.92667 31.3872 8.92667C31.3008 9.01333 31.1278 9.1 31.0414 9.1C30.9549 9.1 30.782 9.1 30.6955 9.18667C30.6523 9.23 30.5874 9.25167 30.5226 9.27333C30.4577 9.295 30.3929 9.31667 30.3496 9.36C30.3064 9.40333 30.2415 9.425 30.1767 9.44667C30.1118 9.46833 30.047 9.49 30.0038 9.53333C29.9173 9.53333 29.8308 9.62 29.7444 9.70667C29.6579 9.70667 29.485 9.70667 29.3985 9.79333C29.3324 9.82644 29.279 9.8469 29.2334 9.86437C29.1595 9.89264 29.1061 9.9131 29.0526 9.96667C28.8797 9.96667 28.7932 10.0533 28.7068 10.14C28.6407 10.1731 28.5873 10.1936 28.5416 10.211C28.4678 10.2393 28.4143 10.2598 28.3609 10.3133C28.3177 10.3567 28.2528 10.3783 28.188 10.4C28.1231 10.4217 28.0583 10.4433 28.015 10.4867C27.949 10.5198 27.8955 10.5402 27.8499 10.5577C27.7761 10.586 27.7226 10.6064 27.6692 10.66C27.6031 10.6931 27.5497 10.7136 27.504 10.731C27.4302 10.7593 27.3768 10.7798 27.3233 10.8333C27.2801 10.8767 27.2152 10.8983 27.1504 10.92C27.0855 10.9417 27.0207 10.9633 26.9774 11.0067C26.891 11.0067 26.8045 11.0933 26.718 11.18C26.5451 11.18 26.4586 11.2667 26.3722 11.3533C26.3289 11.3967 26.2857 11.4183 26.2425 11.44C26.1992 11.4617 26.156 11.4833 26.1128 11.5267C26.0696 11.57 26.0263 11.5917 25.9831 11.6133C25.9399 11.635 25.8966 11.6567 25.8534 11.7C25.7669 11.7 25.6805 11.7867 25.594 11.8733L25.3346 12.1333C25.2914 12.1767 25.2481 12.1983 25.2049 12.22C25.1617 12.2417 25.1184 12.2633 25.0752 12.3067C25.0091 12.3398 24.9557 12.3602 24.9101 12.3777C24.8362 12.406 24.7828 12.4264 24.7293 12.48C24.614 12.48 24.5756 12.557 24.5372 12.6341C24.518 12.6726 24.4987 12.7111 24.4699 12.74C24.3835 12.74 24.297 12.8267 24.2105 12.9133C24.1445 12.9464 24.091 12.9669 24.0454 12.9844C23.9715 13.0126 23.9181 13.0331 23.8647 13.0867C23.8214 13.13 23.7566 13.1517 23.6917 13.1733C23.6269 13.195 23.562 13.2167 23.5188 13.26C23.4035 13.26 23.3651 13.337 23.3267 13.4141C23.3074 13.4526 23.2882 13.4911 23.2594 13.52C23.2162 13.5633 23.1729 13.585 23.1297 13.6067C23.0865 13.6283 23.0432 13.65 23 13.6933C22.9568 13.7367 22.8919 13.7583 22.8271 13.78C22.7622 13.8017 22.6974 13.8233 22.6541 13.8667L22.3947 14.1267C22.3462 14.1267 22.3249 14.1813 22.3003 14.2446C22.281 14.294 22.2597 14.3487 22.2218 14.3867C22.1786 14.43 22.1137 14.4517 22.0489 14.4733C21.984 14.495 21.9192 14.5167 21.8759 14.56C21.8327 14.6033 21.8111 14.6683 21.7895 14.7333C21.7679 14.7983 21.7462 14.8633 21.703 14.9067C21.6598 14.95 21.6165 14.9717 21.5733 14.9933C21.5301 15.015 21.4868 15.0367 21.4436 15.08L21.1842 15.34C21.1357 15.34 21.1144 15.3947 21.0897 15.4579C21.0705 15.5073 21.0492 15.562 21.0113 15.6C20.968 15.6433 20.9032 15.665 20.8383 15.6867C20.7735 15.7083 20.7086 15.73 20.6654 15.7733C20.6222 15.8167 20.6006 15.86 20.5789 15.9033C20.5573 15.9467 20.5357 15.99 20.4925 16.0333C20.4493 16.0767 20.406 16.0983 20.3628 16.12C20.3195 16.1417 20.2763 16.1633 20.2331 16.2067L19.9737 16.4667C19.9305 16.51 19.8872 16.5317 19.844 16.5533C19.8008 16.575 19.7575 16.5967 19.7143 16.64C19.7143 16.7267 19.7143 16.9 19.6278 16.9867C19.5846 17.03 19.5197 17.0517 19.4549 17.0733C19.39 17.095 19.3252 17.1167 19.282 17.16L18.7632 17.68C18.7199 17.7233 18.6983 17.7883 18.6767 17.8533C18.6551 17.9183 18.6335 17.9833 18.5902 18.0267C18.547 18.07 18.4821 18.0917 18.4173 18.1133C18.3524 18.135 18.2876 18.1567 18.2444 18.2C18.2011 18.2433 18.1795 18.3083 18.1579 18.3733C18.1363 18.4383 18.1147 18.5033 18.0714 18.5467L17.2932 19.3267C17.2932 19.4133 17.2068 19.5 17.1203 19.5867L16.8609 19.8467C16.8177 19.89 16.7961 19.9333 16.7744 19.9767C16.7528 20.02 16.7312 20.0633 16.688 20.1067C16.6447 20.15 16.6231 20.215 16.6015 20.28C16.5799 20.345 16.5583 20.41 16.515 20.4533L15.9962 20.9733C15.9632 21.0395 15.9428 21.0931 15.9254 21.1389C15.8972 21.2129 15.8768 21.2664 15.8233 21.32C15.7801 21.3633 15.7585 21.4067 15.7368 21.45C15.7152 21.4933 15.6936 21.5367 15.6504 21.58C15.6071 21.6233 15.5855 21.6883 15.5639 21.7533C15.5423 21.8183 15.5207 21.8833 15.4774 21.9267C15.4774 21.9844 15.4006 22.0422 15.3237 22.1C15.2853 22.1289 15.2469 22.1578 15.218 22.1867C15.218 22.2481 15.2289 22.3095 15.2391 22.367C15.2576 22.4719 15.2739 22.564 15.218 22.62L14.9586 22.88C14.9256 22.9462 14.9052 22.9998 14.8878 23.0455C14.8596 23.1195 14.8392 23.1731 14.7857 23.2267L14.5263 23.4867C14.4831 23.53 14.4615 23.595 14.4399 23.66C14.4182 23.725 14.3966 23.79 14.3534 23.8333C14.3204 23.8995 14.2999 23.9531 14.2825 23.9989C14.2543 24.0729 14.2339 24.1264 14.1805 24.18C14.1474 24.2462 14.127 24.2998 14.1096 24.3455C14.0814 24.4195 14.061 24.4731 14.0075 24.5267L13.7481 24.7867C13.7481 24.8733 13.6617 24.96 13.5752 25.0467C13.532 25.09 13.5103 25.155 13.4887 25.22C13.4671 25.285 13.4455 25.35 13.4023 25.3933C13.3692 25.4595 13.3488 25.5131 13.3314 25.5589C13.3032 25.6329 13.2828 25.6864 13.2293 25.74C13.1861 25.7833 13.1645 25.8483 13.1429 25.9133C13.1212 25.9783 13.0996 26.0433 13.0564 26.0867C13.0234 26.1529 13.003 26.2064 12.9855 26.2522C12.9573 26.3262 12.9369 26.3798 12.8835 26.4333C12.8835 26.6067 12.797 26.6933 12.7105 26.78C12.7105 26.8667 12.7105 27.04 12.6241 27.1267L12.3647 27.3867C12.3647 27.4129 12.3726 27.4471 12.3812 27.4844C12.4012 27.5703 12.4249 27.6729 12.3647 27.7333C12.3316 27.7995 12.3112 27.8531 12.2938 27.8989C12.2656 27.9729 12.2452 28.0264 12.1917 28.08L11.9323 28.34C11.8891 28.3833 11.8675 28.4483 11.8459 28.5133C11.8243 28.5783 11.8026 28.6433 11.7594 28.6867C11.7162 28.73 11.6946 28.795 11.6729 28.86C11.6513 28.925 11.6297 28.99 11.5865 29.0333L11.3271 29.2933C11.3271 29.3196 11.335 29.3538 11.3436 29.3911C11.3636 29.477 11.3874 29.5796 11.3271 29.64C11.3271 29.7267 11.2406 29.8133 11.1541 29.9C11.1109 29.9433 11.1109 30.0083 11.1109 30.0733C11.1109 30.1383 11.1109 30.2033 11.0677 30.2467C11.0677 30.29 11.0461 30.355 11.0244 30.42C11.0028 30.485 10.9812 30.55 10.9812 30.5933C10.9812 30.6949 10.9219 30.7667 10.8727 30.8261C10.8379 30.8682 10.8083 30.9041 10.8083 30.94C10.7753 31.0062 10.7422 31.0597 10.714 31.1055C10.6684 31.1795 10.6353 31.2331 10.6353 31.2867C10.6353 31.33 10.6137 31.395 10.5921 31.46C10.5705 31.525 10.5489 31.59 10.5489 31.6333C10.5489 31.7349 10.4895 31.8067 10.4404 31.8661C10.4056 31.9082 10.3759 31.9441 10.3759 31.98C10.3759 32.0233 10.3543 32.0883 10.3327 32.1533C10.3111 32.2183 10.2895 32.2833 10.2895 32.3267C10.2564 32.3929 10.2234 32.4464 10.1952 32.4922C10.1496 32.5662 10.1165 32.6198 10.1165 32.6733C10.0835 32.7395 10.0505 32.7931 10.0223 32.8388C9.97664 32.9129 9.94361 32.9664 9.94361 33.02V33.3667C9.94361 33.41 9.92199 33.475 9.90038 33.54C9.87876 33.605 9.85714 33.67 9.85714 33.7133C9.77068 33.8 9.77068 33.9733 9.77068 34.06C9.77068 34.1615 9.71134 34.2333 9.66218 34.2928C9.62742 34.3349 9.59775 34.3708 9.59775 34.4067C9.59775 34.45 9.57613 34.515 9.55451 34.58C9.5329 34.645 9.51128 34.71 9.51128 34.7533C9.51128 34.8549 9.45194 34.9267 9.40278 34.9861C9.36802 35.0282 9.33835 35.0641 9.33835 35.1C9.27806 35.1604 9.30184 35.263 9.32177 35.3489C9.33042 35.3862 9.33835 35.4204 9.33835 35.4467C9.33835 35.49 9.31673 35.555 9.29511 35.62C9.2735 35.685 9.25188 35.75 9.25188 35.7933V36.14C9.16541 36.2267 9.07895 36.4 9.07895 36.4867C9.07895 36.53 9.05733 36.595 9.03572 36.66C9.0141 36.725 8.99248 36.79 8.99248 36.8333C8.99248 36.8767 8.97087 36.9417 8.94925 37.0067C8.92763 37.0717 8.90602 37.1367 8.90602 37.18V37.5267C8.90602 37.57 8.8844 37.635 8.86278 37.7C8.84117 37.765 8.81955 37.83 8.81955 37.8733C8.73308 37.96 8.73308 38.1333 8.73308 38.22C8.73308 38.2633 8.71147 38.3283 8.68985 38.3933C8.66823 38.4583 8.64662 38.5233 8.64662 38.5667C8.64662 38.61 8.625 38.675 8.60338 38.74C8.58177 38.805 8.56015 38.87 8.56015 38.9133C8.49986 38.9738 8.52365 39.0763 8.54357 39.1623C8.55223 39.1996 8.56015 39.2338 8.56015 39.26C8.56015 39.3615 8.53048 39.4333 8.5059 39.4928C8.48852 39.5349 8.47369 39.5708 8.47369 39.6067C8.47369 39.7082 8.50336 39.78 8.52794 39.8395C8.54532 39.8815 8.56015 39.9174 8.56015 39.9533V40.3C8.56015 40.4015 8.58982 40.4733 8.6144 40.5328C8.63178 40.5749 8.64662 40.6108 8.64662 40.6467C8.73308 40.82 8.73308 40.9067 8.73308 40.9933C8.64662 41.08 8.64662 41.2533 8.64662 41.34C8.64662 41.3833 8.625 41.4483 8.60338 41.5133C8.58177 41.5783 8.56015 41.6433 8.56015 41.6867C8.56015 41.73 8.53854 41.795 8.51692 41.86C8.4953 41.925 8.47369 41.99 8.47369 42.0333C8.47369 42.12 8.47369 42.2933 8.38722 42.38L7.86842 42.9C7.82519 42.9433 7.80357 43.0083 7.78196 43.0733C7.76034 43.1383 7.73872 43.2033 7.69549 43.2467C7.60902 43.2467 7.43609 43.2467 7.34962 43.3333C7.31171 43.3713 7.25718 43.3927 7.20789 43.412C7.14476 43.4367 7.09023 43.458 7.09023 43.5067C7.04699 43.55 7.02538 43.615 7.00376 43.68C6.98214 43.745 6.96053 43.81 6.91729 43.8533C6.87406 43.8967 6.80921 43.8967 6.74436 43.8967C6.67951 43.8967 6.61466 43.8967 6.57143 43.94C6.48496 43.94 6.31203 43.94 6.22556 44.0267C6.15951 44.0598 6.10607 44.0929 6.06043 44.1211C5.98658 44.1669 5.93314 44.2 5.8797 44.2C5.81365 44.2331 5.76021 44.2662 5.71456 44.2945C5.64071 44.3402 5.58727 44.3733 5.53383 44.3733C5.4906 44.3733 5.42575 44.395 5.3609 44.4167C5.29605 44.4383 5.2312 44.46 5.18797 44.46C5.12768 44.5204 5.02536 44.4966 4.93963 44.4766C4.90239 44.4679 4.86829 44.46 4.84211 44.46C4.79887 44.46 4.73402 44.4817 4.66917 44.5033C4.60432 44.525 4.53947 44.5467 4.49624 44.5467C4.45301 44.5467 4.38816 44.5033 4.32331 44.46C4.25846 44.4167 4.19361 44.3733 4.15038 44.3733C4.04907 44.3733 3.97744 44.3436 3.9181 44.319Z" fill="#D4B079"/>
<path d="M44.7895 14.56C44.8759 14.6467 44.8759 14.7333 44.8759 14.82C44.8759 14.8736 44.909 14.9271 44.9546 15.0011C44.9828 15.0469 45.0159 15.1005 45.0489 15.1667C45.0819 15.2328 45.1149 15.2864 45.1431 15.3321C45.1887 15.4061 45.2218 15.4598 45.2218 15.5133C45.3083 15.6 45.3083 15.7733 45.3083 15.86C45.3083 15.9615 45.3676 16.0333 45.4168 16.0928C45.4515 16.1349 45.4812 16.1708 45.4812 16.2067C45.5415 16.2671 45.5177 16.3696 45.4978 16.4556C45.4891 16.4929 45.4812 16.5271 45.4812 16.5533C45.4812 16.6549 45.5406 16.7267 45.5897 16.7861C45.6245 16.8282 45.6541 16.8641 45.6541 16.9V17.5933C45.6541 17.6367 45.6758 17.7017 45.6974 17.7667C45.719 17.8317 45.7406 17.8967 45.7406 17.94V18.2867C45.7406 18.33 45.7622 18.395 45.7838 18.46C45.8055 18.525 45.8271 18.59 45.8271 18.6333V18.98C45.8271 19.0233 45.8487 19.0883 45.8703 19.1533C45.8919 19.2183 45.9135 19.2833 45.9135 19.3267V20.02C46 20.1067 46 20.28 46 20.3667V21.06C46 21.1033 45.9784 21.1683 45.9568 21.2333C45.9352 21.2983 45.9135 21.3633 45.9135 21.4067V21.7533C45.9135 21.7967 45.8919 21.8616 45.8703 21.9266C45.8487 21.9916 45.8271 22.0567 45.8271 22.1V22.4467C45.8271 22.49 45.8055 22.555 45.7838 22.62C45.7622 22.685 45.7406 22.75 45.7406 22.7933C45.7406 22.8367 45.7838 22.9017 45.8271 22.9667C45.8703 23.0317 45.9135 23.0967 45.9135 23.14C45.9135 23.1833 45.8703 23.2483 45.8271 23.3133C45.7838 23.3783 45.7406 23.4433 45.7406 23.4867C45.7406 23.53 45.7622 23.595 45.7838 23.66C45.8055 23.725 45.8271 23.79 45.8271 23.8333V24.18C45.8271 24.2233 45.7838 24.2883 45.7406 24.3533C45.6974 24.4183 45.6541 24.4833 45.6541 24.5267V24.8733C45.6541 24.9167 45.6325 24.9817 45.6109 25.0467C45.5893 25.1117 45.5677 25.1767 45.5677 25.22C45.5677 25.2633 45.5893 25.3283 45.6109 25.3933C45.6325 25.4583 45.6541 25.5233 45.6541 25.5667C45.6541 25.61 45.6325 25.675 45.6109 25.74C45.5893 25.805 45.5677 25.87 45.5677 25.9133C45.5677 26.0149 45.5083 26.0867 45.4592 26.1461C45.4244 26.1882 45.3947 26.2241 45.3947 26.26C45.3083 26.3467 45.3083 26.52 45.3083 26.6067C45.3083 26.65 45.3299 26.715 45.3515 26.78C45.3731 26.845 45.3947 26.91 45.3947 26.9533C45.3947 27.0549 45.3354 27.1267 45.2862 27.1861C45.2515 27.2282 45.2218 27.2641 45.2218 27.3C45.1615 27.3604 45.1853 27.463 45.2052 27.5489C45.2139 27.5862 45.2218 27.6204 45.2218 27.6467C45.2218 27.7482 45.1625 27.82 45.1133 27.8795C45.0785 27.9215 45.0489 27.9574 45.0489 27.9933C45.0489 28.0367 45.0273 28.1016 45.0056 28.1666C44.984 28.2316 44.9624 28.2967 44.9624 28.34V28.6867C44.9624 28.73 44.9408 28.795 44.9192 28.86C44.8976 28.925 44.8759 28.99 44.8759 29.0333C44.8759 29.0767 44.8543 29.1417 44.8327 29.2067C44.8111 29.2717 44.7895 29.3367 44.7895 29.38C44.7292 29.4404 44.753 29.543 44.7729 29.6289C44.7816 29.6662 44.7895 29.7004 44.7895 29.7267C44.7895 29.77 44.7679 29.835 44.7462 29.9C44.7246 29.965 44.703 30.03 44.703 30.0733C44.703 30.1749 44.6437 30.2467 44.5945 30.3061C44.5597 30.3482 44.5301 30.3841 44.5301 30.42V30.7667C44.4971 30.8328 44.4641 30.8863 44.4359 30.932C44.3903 31.006 44.3571 31.0598 44.3571 31.1133C44.3571 31.1567 44.3355 31.2217 44.3139 31.2867C44.2923 31.3517 44.2707 31.4167 44.2707 31.46C44.2707 31.5033 44.2058 31.5467 44.141 31.59C44.0761 31.6333 44.0113 31.6767 44.0113 31.72C43.951 31.7804 43.9748 31.883 43.9947 31.9689C44.0034 32.0062 44.0113 32.0404 44.0113 32.0667C44.0113 32.11 43.9897 32.175 43.968 32.24C43.9464 32.305 43.9248 32.37 43.9248 32.4133C43.8384 32.5 43.7519 32.6733 43.7519 32.76C43.7189 32.8262 43.6984 32.8798 43.681 32.9255C43.6528 32.9995 43.6324 33.0531 43.5789 33.1067L43.3196 33.3667C43.3196 33.4533 43.3195 33.6267 43.2331 33.7133C43.2331 33.7396 43.241 33.7738 43.2497 33.8111C43.2696 33.897 43.2934 33.9996 43.2331 34.06L42.9737 34.32C42.9305 34.3633 42.9088 34.4283 42.8872 34.4933C42.8656 34.5583 42.844 34.6233 42.8008 34.6667C42.7575 34.71 42.7575 34.775 42.7575 34.84C42.7575 34.905 42.7575 34.97 42.7143 35.0133L42.4549 35.2733C42.4219 35.3395 42.4015 35.3931 42.384 35.4388C42.3558 35.5129 42.3354 35.5664 42.282 35.62C42.2489 35.6862 42.2285 35.7398 42.2111 35.7855C42.1829 35.8595 42.1625 35.9131 42.109 35.9667C42.109 36.0533 42.0226 36.14 41.9361 36.2267C41.8929 36.27 41.8929 36.335 41.8929 36.4C41.8929 36.465 41.8929 36.53 41.8496 36.5733C41.8064 36.6167 41.7848 36.6817 41.7632 36.7467C41.7415 36.8117 41.7199 36.8767 41.6767 36.92L41.4173 37.18C41.3741 37.2233 41.3741 37.2883 41.3741 37.3533C41.3741 37.4183 41.3741 37.4833 41.3308 37.5267L41.0714 37.7867C41.0384 37.8529 41.018 37.9064 41.0006 37.9522C40.9724 38.0262 40.9519 38.0798 40.8985 38.1333L40.6391 38.3933C40.5959 38.4367 40.5959 38.5017 40.5959 38.5667C40.5959 38.6317 40.5959 38.6967 40.5526 38.74C40.5196 38.8062 40.4992 38.8598 40.4818 38.9055C40.4536 38.9795 40.4331 39.0331 40.3797 39.0867C40.3365 39.13 40.3149 39.1733 40.2932 39.2167C40.2716 39.26 40.25 39.3033 40.2068 39.3467C40.1635 39.39 40.1419 39.4333 40.1203 39.4767C40.0987 39.52 40.0771 39.5633 40.0338 39.6067L39.7744 39.8667C39.7312 39.91 39.7096 39.975 39.688 40.04C39.6664 40.105 39.6447 40.17 39.6015 40.2133C39.6015 40.2711 39.5247 40.3289 39.4478 40.3867C39.4094 40.4156 39.3709 40.4444 39.3421 40.4733C39.3091 40.5395 39.2887 40.5931 39.2712 40.6388C39.243 40.7129 39.2226 40.7664 39.1692 40.82L38.9098 41.08C38.8665 41.1233 38.8449 41.1667 38.8233 41.21C38.8017 41.2533 38.7801 41.2967 38.7368 41.34L38.4774 41.6C38.4342 41.6433 38.4126 41.6867 38.391 41.73C38.3694 41.7733 38.3477 41.8167 38.3045 41.86L38.0451 42.12C38.0019 42.1633 37.9803 42.2283 37.9586 42.2933C37.937 42.3583 37.9154 42.4233 37.8722 42.4667L37.6128 42.7267C37.5696 42.77 37.5479 42.8133 37.5263 42.8567C37.5047 42.9 37.4831 42.9433 37.4398 42.9867C37.3966 43.03 37.3534 43.0517 37.3102 43.0733C37.2669 43.095 37.2237 43.1167 37.1805 43.16C37.1372 43.2033 37.1156 43.2683 37.094 43.3333C37.0724 43.3983 37.0508 43.4633 37.0075 43.5067L36.7481 43.7667C36.7049 43.81 36.64 43.8317 36.5752 43.8533C36.5103 43.875 36.4455 43.8967 36.4023 43.94C36.359 43.9833 36.3374 44.0483 36.3158 44.1133C36.2942 44.1783 36.2726 44.2433 36.2293 44.2867C36.1861 44.33 36.1429 44.3517 36.0996 44.3733C36.0564 44.395 36.0132 44.4167 35.9699 44.46C35.9267 44.5033 35.9051 44.5683 35.8835 44.6333C35.8619 44.6983 35.8402 44.7633 35.797 44.8067L35.5376 45.0667C35.4944 45.11 35.4295 45.1317 35.3647 45.1533C35.2998 45.175 35.235 45.1967 35.1917 45.24C35.1917 45.3267 35.1053 45.4133 35.0188 45.5L34.5 46.02C34.4568 46.0633 34.3919 46.085 34.3271 46.1067C34.2622 46.1283 34.1974 46.15 34.1541 46.1933C34.1056 46.1933 34.0843 46.248 34.0596 46.3113C34.0404 46.3607 34.0191 46.4153 33.9812 46.4533L33.4624 46.9733C33.4192 47.0167 33.3543 47.0167 33.2895 47.0167C33.2246 47.0167 33.1598 47.0167 33.1165 47.06C33.0733 47.1033 33.0517 47.1683 33.0301 47.2333C33.0085 47.2983 32.9868 47.3633 32.9436 47.4067C32.9004 47.45 32.8571 47.4717 32.8139 47.4933C32.7707 47.515 32.7274 47.5367 32.6842 47.58C32.641 47.6233 32.5761 47.6233 32.5113 47.6233C32.4464 47.6233 32.3816 47.6233 32.3383 47.6667C32.2231 47.6667 32.1846 47.7437 32.1462 47.8207C32.127 47.8593 32.1078 47.8978 32.0789 47.9267C31.9925 47.9267 31.906 48.0133 31.8196 48.1C31.7763 48.1433 31.7115 48.1433 31.6466 48.1433C31.5818 48.1433 31.5169 48.1433 31.4737 48.1867C31.4305 48.23 31.3872 48.2517 31.344 48.2733C31.3008 48.295 31.2575 48.3167 31.2143 48.36C31.1566 48.36 31.099 48.437 31.0414 48.5141C31.0125 48.5526 30.9837 48.5911 30.9549 48.62C30.8684 48.62 30.6955 48.62 30.609 48.7067C30.5658 48.75 30.5009 48.7717 30.4361 48.7933C30.3712 48.815 30.3064 48.8367 30.2632 48.88C30.1972 48.913 30.1439 48.9335 30.0983 48.9509C30.0244 48.9792 29.9707 48.9998 29.9173 49.0533L29.6579 49.3133C29.6147 49.3567 29.5498 49.3567 29.485 49.3567C29.4201 49.3567 29.3553 49.3567 29.312 49.4L29.0526 49.66C29.0265 49.66 28.9923 49.6521 28.9551 49.6434C28.8694 49.6234 28.7671 49.5996 28.7068 49.66C28.6635 49.7033 28.5987 49.725 28.5339 49.7467C28.469 49.7683 28.4041 49.79 28.3609 49.8333C28.2744 49.8333 28.188 49.92 28.1015 50.0067C28.0355 50.0398 27.982 50.0602 27.9364 50.0777C27.8625 50.106 27.8091 50.1264 27.7556 50.18C27.6896 50.2131 27.6361 50.2462 27.5905 50.2745C27.5167 50.3202 27.4632 50.3533 27.4098 50.3533C27.3666 50.3533 27.3017 50.375 27.2369 50.3967C27.172 50.4183 27.1071 50.44 27.0639 50.44C26.9979 50.4731 26.9444 50.5062 26.8988 50.5345C26.8249 50.5802 26.7715 50.6133 26.718 50.6133C26.6748 50.6133 26.61 50.635 26.5452 50.6567C26.4803 50.6783 26.4154 50.7 26.3722 50.7C26.329 50.7 26.2641 50.7217 26.1993 50.7433C26.1345 50.765 26.0695 50.7867 26.0263 50.7867C25.9831 50.7867 25.9183 50.8083 25.8534 50.83C25.7886 50.8516 25.7237 50.8733 25.6805 50.8733C25.6372 50.8733 25.5724 50.895 25.5075 50.9167C25.4427 50.9383 25.3778 50.96 25.3346 50.96C25.2743 51.0204 25.172 50.9966 25.0862 50.9766C25.049 50.9679 25.0149 50.96 24.9887 50.96C24.9023 51.0033 24.8374 51.0683 24.7834 51.1225C24.7293 51.1767 24.6861 51.22 24.6429 51.22H24.297C24.1957 51.22 24.1241 51.2795 24.0647 51.3288C24.0228 51.3636 23.9869 51.3933 23.9511 51.3933H23.6053C23.562 51.3933 23.4972 51.415 23.4324 51.4367C23.3675 51.4583 23.3026 51.48 23.2594 51.48H22.9135C22.8271 51.5667 22.6541 51.5667 22.5677 51.5667C22.5244 51.5667 22.4596 51.5883 22.3948 51.61C22.3299 51.6316 22.265 51.6533 22.2218 51.6533C22.1353 51.74 21.9624 51.74 21.8759 51.74H21.5301C21.4868 51.74 21.422 51.7617 21.3571 51.7833C21.2923 51.805 21.2274 51.8267 21.1842 51.8267H20.1466C20.1034 51.8267 20.0385 51.87 19.9737 51.9133C19.9088 51.9567 19.844 52 19.8008 52C19.7575 52 19.6927 51.9567 19.6278 51.9133C19.563 51.87 19.4981 51.8267 19.4549 51.8267C19.4117 51.8267 19.3468 51.8483 19.282 51.87C19.2172 51.8917 19.1522 51.9133 19.109 51.9133C19.0658 51.9133 19.001 51.935 18.9361 51.9567C18.8713 51.9783 18.8064 52 18.7632 52C18.7199 52 18.6551 51.9783 18.5903 51.9567C18.5254 51.935 18.4605 51.9133 18.4173 51.9133H18.0714C18.0282 51.9133 17.9634 51.8917 17.8985 51.87C17.8337 51.8483 17.7688 51.8267 17.7256 51.8267C17.6653 51.7662 17.563 51.7901 17.4772 51.81C17.44 51.8187 17.4059 51.8267 17.3797 51.8267H17.0338C16.9474 51.74 16.7744 51.74 16.688 51.74H16.3421C16.2989 51.74 16.2341 51.7183 16.1692 51.6967C16.1044 51.675 16.0395 51.6533 15.9962 51.6533H15.3045C15.2613 51.6533 15.1965 51.6317 15.1316 51.61C15.0668 51.5883 15.0019 51.5667 14.9586 51.5667C14.8926 51.5336 14.8392 51.5005 14.7935 51.4722C14.7197 51.4264 14.6662 51.3933 14.6128 51.3933H13.9211C13.8778 51.3933 13.813 51.3717 13.7481 51.35C13.6833 51.3283 13.6184 51.3067 13.5752 51.3067H13.2293C13.1861 51.3067 13.1213 51.285 13.0564 51.2633C12.9916 51.2417 12.9267 51.22 12.8835 51.22C12.8402 51.22 12.7754 51.2417 12.7106 51.2633C12.6457 51.285 12.5808 51.3067 12.5376 51.3067C12.4944 51.3067 12.4295 51.285 12.3647 51.2633C12.2999 51.2417 12.235 51.22 12.1917 51.22C12.1485 51.22 12.0837 51.1983 12.0188 51.1767C11.954 51.155 11.8891 51.1333 11.8459 51.1333C11.8026 51.1333 11.7378 51.1117 11.673 51.09C11.6081 51.0684 11.5432 51.0467 11.5 51.0467H11.1541C11.0677 50.96 10.8947 50.8733 10.8083 50.8733C10.7218 50.7867 10.5489 50.7867 10.4624 50.7867C10.3611 50.7867 10.2895 50.7272 10.2301 50.6779C10.1882 50.6431 10.1524 50.6133 10.1165 50.6133C10.0505 50.5802 9.99704 50.5471 9.9514 50.5188C9.87755 50.4731 9.82411 50.44 9.77068 50.44C9.68421 50.3533 9.51128 50.3533 9.42481 50.3533C9.38158 50.31 9.31673 50.31 9.25188 50.31C9.18703 50.31 9.12218 50.31 9.07895 50.2667C8.99248 50.2667 8.90602 50.18 8.81955 50.0933C8.77632 50.05 8.71147 50.05 8.64662 50.05C8.58177 50.05 8.51692 50.05 8.47368 50.0067L8.21429 49.7467C8.17105 49.7033 8.1062 49.7033 8.04136 49.7033C7.97651 49.7033 7.91165 49.7033 7.86842 49.66C7.78196 49.66 7.60902 49.66 7.52256 49.5733C7.45653 49.5402 7.40311 49.5198 7.35748 49.5023C7.28363 49.474 7.23013 49.4536 7.17669 49.4C7.00376 49.4 6.91729 49.3133 6.83083 49.2267C6.74436 49.2267 6.57143 49.2267 6.48496 49.14L5.96617 48.62C5.92293 48.5767 5.85809 48.555 5.76081 48.5225C5.66354 48.49 5.53384 48.4467 5.3609 48.36C5.27444 48.36 5.18798 48.2733 5.10152 48.1867C5.03558 48.1536 4.98218 48.1332 4.93659 48.1157C4.86274 48.0874 4.80908 48.0669 4.75564 48.0133C4.71241 47.97 4.64756 47.97 4.58271 47.97C4.51786 47.97 4.45301 47.97 4.40977 47.9267L4.15038 47.6667C4.10714 47.6233 4.04229 47.6017 3.97744 47.58C3.91259 47.5583 3.84774 47.5367 3.80451 47.4933L3.54511 47.2333C3.50188 47.19 3.45865 47.1683 3.41541 47.1467C3.37218 47.125 3.32895 47.1033 3.28571 47.06C3.24248 47.0167 3.19925 46.995 3.15602 46.9733C3.11278 46.9517 3.06955 46.93 3.02632 46.8867C2.96603 46.8262 2.98981 46.7237 3.00974 46.6377C3.01839 46.6004 3.02632 46.5662 3.02632 46.54C3.02632 46.4533 3.02632 46.3667 3.11278 46.28C3.19925 46.1933 3.37218 46.1933 3.45865 46.1933C3.55995 46.1933 3.63158 46.2528 3.69092 46.3021C3.73288 46.3369 3.7687 46.3667 3.80451 46.3667C3.84773 46.3667 3.91256 46.3883 3.9774 46.41C4.04223 46.4316 4.10715 46.4533 4.15038 46.4533H4.49624C4.53946 46.4533 4.60429 46.475 4.66913 46.4967C4.73396 46.5183 4.79888 46.54 4.84211 46.54H5.44737C5.51343 46.5731 5.56687 46.6062 5.61251 46.6345C5.68636 46.6802 5.7398 46.7133 5.79323 46.7133C5.8797 46.8 6.05263 46.8 6.1391 46.8C6.22556 46.8867 6.3985 46.8867 6.48496 46.8867C6.52819 46.8867 6.59302 46.9083 6.65785 46.93C6.72269 46.9516 6.7876 46.9733 6.83083 46.9733C6.87406 46.9733 6.93891 46.995 7.00376 47.0167C7.06861 47.0383 7.13346 47.06 7.17669 47.06C7.21991 47.06 7.28474 47.0817 7.34958 47.1033C7.41441 47.125 7.47934 47.1467 7.52256 47.1467C7.56578 47.1467 7.63061 47.1683 7.69545 47.19C7.76028 47.2117 7.8252 47.2333 7.86842 47.2333C7.92871 47.2938 8.03103 47.2699 8.11677 47.25C8.154 47.2413 8.18811 47.2333 8.21429 47.2333C8.31559 47.2333 8.38722 47.2928 8.44656 47.3421C8.48852 47.3769 8.52433 47.4067 8.56015 47.4067C8.66145 47.4067 8.73308 47.4364 8.79242 47.461C8.83438 47.4785 8.8702 47.4933 8.90602 47.4933H9.94361C10.0301 47.58 10.203 47.6667 10.2895 47.6667C10.3327 47.6667 10.3975 47.6883 10.4624 47.71C10.5272 47.7317 10.5921 47.7533 10.6353 47.7533C10.7218 47.84 10.8947 47.84 10.9812 47.84H12.0188C12.062 47.84 12.1269 47.8183 12.1917 47.7967C12.2565 47.775 12.3214 47.7533 12.3647 47.7533C12.4079 47.7533 12.4727 47.775 12.5375 47.7966C12.6024 47.8183 12.6673 47.84 12.7105 47.84H13.0564C13.0996 47.84 13.1644 47.8183 13.2293 47.7967C13.2941 47.775 13.359 47.7533 13.4023 47.7533C13.4455 47.7533 13.5103 47.775 13.5751 47.7967C13.64 47.8183 13.7049 47.84 13.7481 47.84H14.094C14.1372 47.84 14.202 47.8183 14.2669 47.7967C14.3317 47.775 14.3966 47.7533 14.4399 47.7533H14.7857C14.8289 47.7533 14.8938 47.7317 14.9586 47.71C15.0234 47.6883 15.0884 47.6667 15.1316 47.6667H15.8233C15.9098 47.58 16.0827 47.4933 16.1692 47.4933C16.2124 47.4933 16.2773 47.4717 16.3421 47.45C16.407 47.4283 16.4718 47.4067 16.515 47.4067C16.5753 47.3462 16.6776 47.3701 16.7634 47.39C16.8006 47.3987 16.8347 47.4067 16.8609 47.4067C16.9041 47.4067 16.969 47.385 17.0338 47.3633C17.0986 47.3417 17.1635 47.32 17.2068 47.32C17.2932 47.2333 17.4662 47.2333 17.5526 47.2333C17.6391 47.1467 17.812 47.1467 17.8985 47.1467C17.9417 47.1467 18.0065 47.125 18.0714 47.1033C18.1362 47.0817 18.2011 47.06 18.2444 47.06C18.3104 47.0269 18.3639 46.9938 18.4095 46.9655C18.4834 46.9198 18.5368 46.8867 18.5902 46.8867H18.9361C19.0021 46.8536 19.0556 46.8205 19.1012 46.7922C19.1751 46.7464 19.2285 46.7133 19.282 46.7133C19.3252 46.7133 19.3684 46.67 19.4117 46.6267C19.4549 46.5833 19.4981 46.54 19.5414 46.54C19.5846 46.4967 19.6494 46.4967 19.7143 46.4967C19.7791 46.4967 19.844 46.4967 19.8872 46.4533C19.9532 46.4202 20.0067 46.3998 20.0523 46.3823C20.1261 46.354 20.1796 46.3336 20.2331 46.28C20.3195 46.28 20.406 46.1933 20.4925 46.1067C20.5186 46.1067 20.5528 46.1146 20.59 46.1233C20.6757 46.1433 20.7781 46.1671 20.8383 46.1067C20.9248 46.1067 21.0113 46.02 21.0977 45.9333C21.1637 45.9003 21.2171 45.8798 21.2627 45.8624C21.3365 45.8341 21.3902 45.8136 21.4436 45.76C21.5301 45.76 21.6165 45.6733 21.703 45.5867C21.7894 45.5867 21.8759 45.5 21.9624 45.4133C22.0489 45.4133 22.2218 45.4133 22.3083 45.3267C22.3947 45.3267 22.5677 45.3267 22.6541 45.24C22.7627 45.1856 22.8031 45.097 22.8395 45.0172C22.8611 44.9699 22.8813 44.9256 22.9135 44.8933C23 44.8933 23.1729 44.8933 23.2594 44.8067C23.3254 44.7736 23.3787 44.7532 23.4244 44.7357C23.4982 44.7074 23.5518 44.6869 23.6053 44.6333L23.8647 44.3733C23.9306 44.3403 23.984 44.3198 24.0296 44.3024C24.1035 44.2741 24.1571 44.2536 24.2105 44.2L24.4699 43.94C24.5132 43.8967 24.578 43.875 24.6429 43.8533C24.7077 43.8317 24.7726 43.81 24.8158 43.7667C24.859 43.7233 24.9023 43.7017 24.9455 43.68C24.9887 43.6583 25.032 43.6367 25.0752 43.5933L25.3346 43.3333C25.4006 43.3002 25.454 43.2798 25.4997 43.2623C25.5735 43.234 25.627 43.2136 25.6805 43.16L25.9398 42.9C25.9831 42.8567 26.0263 42.835 26.0695 42.8133C26.1128 42.7917 26.156 42.77 26.1993 42.7267L26.4586 42.4667C26.5019 42.4233 26.5451 42.4017 26.5883 42.38C26.6316 42.3583 26.6748 42.3367 26.718 42.2933C26.7613 42.25 26.7829 42.185 26.8045 42.12C26.8261 42.055 26.8477 41.99 26.891 41.9467C26.9342 41.9033 26.9991 41.8817 27.0639 41.86C27.1288 41.8383 27.1936 41.8167 27.2368 41.7733L27.4962 41.5133C27.4962 41.4267 27.4962 41.2533 27.5827 41.1667C27.6259 41.1233 27.6908 41.1017 27.7556 41.08C27.8205 41.0583 27.8853 41.0367 27.9286 40.9933C27.9718 40.95 27.9934 40.885 28.015 40.82C28.0367 40.755 28.0583 40.69 28.1015 40.6467C28.1447 40.6033 28.2096 40.5817 28.2744 40.56C28.3393 40.5383 28.4041 40.5167 28.4474 40.4733C28.4474 40.3867 28.4474 40.2133 28.5338 40.1267C28.5771 40.0833 28.6419 40.0617 28.7068 40.04C28.7716 40.0183 28.8365 39.9967 28.8797 39.9533L29.1391 39.6933C29.1823 39.65 29.2039 39.585 29.2256 39.52C29.2472 39.455 29.2688 39.39 29.312 39.3467L29.5714 39.0867C29.5714 39 29.6579 38.9133 29.7444 38.8267C29.7444 38.74 29.8308 38.6533 29.9173 38.5667C29.9605 38.5233 29.9821 38.4583 30.0038 38.3933C30.0254 38.3283 30.047 38.2633 30.0902 38.22C30.1233 38.1538 30.1437 38.1002 30.1611 38.0545C30.1893 37.9805 30.2097 37.9269 30.2632 37.8733C30.3064 37.83 30.3712 37.8083 30.4361 37.7867C30.5009 37.765 30.5658 37.7433 30.609 37.7C30.6523 37.6567 30.6523 37.5917 30.6523 37.5267C30.6523 37.4617 30.6523 37.3967 30.6955 37.3533C30.6955 37.2378 30.7724 37.1993 30.8492 37.1607C30.8876 37.1415 30.9261 37.1222 30.9549 37.0933C30.9879 37.0271 31.0083 36.9736 31.0258 36.9278C31.054 36.8538 31.0744 36.8002 31.1278 36.7467C31.1278 36.66 31.1278 36.4867 31.2143 36.4L31.7331 35.88C31.7763 35.8367 31.7979 35.7933 31.8195 35.75C31.8412 35.7067 31.8628 35.6633 31.906 35.62C31.906 35.5333 31.906 35.36 31.9925 35.2733L32.2519 35.0133C32.2951 34.97 32.3167 34.905 32.3384 34.84C32.36 34.775 32.3816 34.71 32.4248 34.6667C32.4248 34.58 32.5113 34.4933 32.5977 34.4067C32.6308 34.3405 32.6512 34.2869 32.6686 34.2411C32.6968 34.1671 32.7172 34.1136 32.7707 34.06C32.8139 34.0167 32.8139 33.9517 32.8139 33.8867C32.8139 33.8217 32.8139 33.7567 32.8571 33.7133L33.1165 33.4533C33.1165 33.3667 33.1165 33.1933 33.203 33.1067C33.203 33.02 33.2895 32.9333 33.3759 32.8467C33.409 32.7805 33.4294 32.7269 33.4468 32.6812C33.475 32.6071 33.4954 32.5536 33.5489 32.5C33.5819 32.4338 33.6023 32.3802 33.6197 32.3345C33.648 32.2605 33.6684 32.2069 33.7218 32.1533C33.765 32.11 33.765 32.045 33.765 31.98C33.765 31.915 33.765 31.85 33.8083 31.8067C33.8083 31.72 33.8083 31.5467 33.8947 31.46C33.8947 31.3733 33.8947 31.2 33.9812 31.1133L34.2406 30.8533C34.2406 30.81 34.2622 30.745 34.2838 30.68C34.3054 30.6151 34.3271 30.55 34.3271 30.5067C34.4135 30.42 34.4135 30.2467 34.4135 30.16C34.4465 30.0939 34.4795 30.0404 34.5077 29.9946C34.5533 29.9206 34.5865 29.8669 34.5865 29.8133C34.5865 29.77 34.6297 29.7267 34.6729 29.6833C34.7162 29.64 34.7594 29.5967 34.7594 29.5533C34.7594 29.51 34.781 29.445 34.8026 29.38C34.8243 29.315 34.8459 29.25 34.8459 29.2067V28.86C34.8459 28.8167 34.8675 28.7517 34.8891 28.6867C34.9107 28.6217 34.9323 28.5567 34.9323 28.5133C34.9323 28.47 34.9539 28.405 34.9756 28.34C34.9972 28.275 35.0188 28.21 35.0188 28.1667C35.1053 28.08 35.1053 27.9067 35.1053 27.82C35.1341 27.7911 35.1725 27.7622 35.2109 27.7334C35.2878 27.6756 35.3647 27.6178 35.3647 27.56C35.3647 27.5167 35.3863 27.4517 35.4079 27.3867C35.4295 27.3217 35.4511 27.2567 35.4511 27.2133V26.8667C35.4842 26.8005 35.5172 26.7469 35.5454 26.7011C35.591 26.6271 35.6241 26.5736 35.6241 26.52C35.7105 26.4333 35.7105 26.26 35.7105 26.1733C35.797 26.0867 35.797 25.9133 35.797 25.8267V25.48C35.8835 25.3933 35.8835 25.22 35.8835 25.1333C35.9165 25.0671 35.9495 25.0136 35.9777 24.9678C36.0234 24.8938 36.0564 24.8402 36.0564 24.7867C36.0564 24.7433 36.078 24.6783 36.0996 24.6133C36.1212 24.5483 36.1429 24.4833 36.1429 24.44C36.1429 24.3967 36.1212 24.3317 36.0996 24.2667C36.078 24.2017 36.0564 24.1367 36.0564 24.0933C36.1429 24.0067 36.1429 23.8333 36.1429 23.7467C36.1429 23.6451 36.2022 23.5733 36.2514 23.5139C36.2861 23.4718 36.3158 23.4359 36.3158 23.4C36.3158 23.3567 36.3374 23.2917 36.359 23.2267C36.3806 23.1617 36.4023 23.0967 36.4023 23.0533C36.4023 23.01 36.3806 22.945 36.359 22.88C36.3374 22.8151 36.3158 22.75 36.3158 22.7067C36.3158 22.6633 36.359 22.5983 36.4023 22.5333C36.4455 22.4683 36.4887 22.4033 36.4887 22.36C36.4887 22.3167 36.4671 22.2517 36.4455 22.1867C36.4239 22.1217 36.4023 22.0567 36.4023 22.0133V21.32C36.4023 21.2767 36.4239 21.2117 36.4455 21.1467C36.4671 21.0817 36.4887 21.0167 36.4887 20.9733C36.4887 20.93 36.4671 20.865 36.4455 20.8C36.4239 20.7351 36.4023 20.67 36.4023 20.6267C36.4023 20.5833 36.4239 20.5184 36.4455 20.4534C36.4671 20.3884 36.4887 20.3233 36.4887 20.28C36.4887 20.2367 36.4671 20.1717 36.4455 20.1067C36.4239 20.0417 36.4023 19.9767 36.4023 19.9333V19.5867C36.4023 19.5433 36.4239 19.4784 36.4455 19.4134C36.4671 19.3484 36.4887 19.2833 36.4887 19.24C36.4887 19.1967 36.4671 19.1317 36.4455 19.0667C36.4239 19.0017 36.4023 18.9367 36.4023 18.8933C36.3158 18.8067 36.3158 18.6333 36.3158 18.5467C36.2555 18.4862 36.2793 18.3837 36.2992 18.2977C36.3079 18.2604 36.3158 18.2262 36.3158 18.2C36.3158 18.1567 36.3374 18.0917 36.359 18.0267C36.3806 17.9617 36.4023 17.8967 36.4023 17.8533C36.3158 17.7667 36.3158 17.5933 36.3158 17.5067C36.3158 17.4633 36.2942 17.3983 36.2726 17.3333C36.2509 17.2683 36.2293 17.2033 36.2293 17.16V16.8133C36.1429 16.7267 36.0564 16.5533 36.0564 16.4667V15.7733C36.0564 15.73 36.0348 15.665 36.0132 15.6C35.9916 15.5351 35.9699 15.47 35.9699 15.4267C35.9369 15.3605 35.904 15.307 35.8758 15.2613C35.8301 15.1873 35.797 15.1336 35.797 15.08C35.7105 14.9933 35.7105 14.82 35.7105 14.7333V14.3867C35.7105 14.3433 35.6889 14.2783 35.6673 14.2133C35.6457 14.1483 35.6241 14.0833 35.6241 14.04C35.6241 13.9385 35.5647 13.8667 35.5156 13.8072C35.4808 13.7651 35.4511 13.7292 35.4511 13.6933C35.4511 13.5918 35.5105 13.52 35.5596 13.4605C35.5944 13.4185 35.6241 13.3826 35.6241 13.3467C35.6241 13.26 35.6241 13.0867 35.7105 13C35.7538 12.9567 35.797 12.935 35.8402 12.9133C35.8835 12.8917 35.9267 12.87 35.9699 12.8267C36.0564 12.74 36.1429 12.5667 36.1429 12.5667C36.2293 12.48 36.3158 12.3933 36.3158 12.3067C36.359 12.2633 36.3806 12.22 36.4023 12.1767C36.4239 12.1333 36.4455 12.09 36.4887 12.0467C36.532 12.0033 36.5536 11.96 36.5752 11.9167C36.5968 11.8733 36.6184 11.83 36.6617 11.7867C36.7049 11.7433 36.7481 11.7217 36.7914 11.7C36.8346 11.6783 36.8778 11.6567 36.9211 11.6133L37.1805 11.3533C37.2669 11.18 37.3534 11.0933 37.4398 11.0067C37.6128 10.92 37.7857 10.92 37.8722 10.92H38.218C38.2613 10.92 38.3261 10.9633 38.391 11.0067C38.4558 11.05 38.5207 11.0933 38.5639 11.0933C38.6242 11.1538 38.7265 11.1299 38.8123 11.11C38.8495 11.1013 38.8836 11.0933 38.9098 11.0933C38.9962 11.18 39.0827 11.2667 39.1692 11.2667H39.7744C39.8177 11.2667 39.8825 11.2883 39.9474 11.31C40.0122 11.3317 40.0771 11.3533 40.1203 11.3533H40.4662C40.5526 11.44 40.7256 11.5267 40.812 11.5267C40.8985 11.6133 41.0714 11.6133 41.1579 11.6133C41.2011 11.6567 41.266 11.6783 41.3308 11.7C41.3957 11.7217 41.4605 11.7433 41.5038 11.7867L41.7632 12.0467C41.8496 12.0467 42.0226 12.0467 42.109 12.1333L42.3684 12.3933C42.4117 12.4367 42.4765 12.4583 42.5414 12.48C42.6062 12.5017 42.6711 12.5233 42.7143 12.5667C42.7575 12.61 42.8224 12.6317 42.8872 12.6533C42.9521 12.675 43.0169 12.6967 43.0602 12.74L43.3196 13C43.3772 13 43.4348 13.077 43.4925 13.1541C43.5213 13.1926 43.5501 13.2311 43.5789 13.26C43.6222 13.3033 43.687 13.325 43.7519 13.3467C43.8167 13.3683 43.8816 13.39 43.9248 13.4333L44.4436 13.9533C44.4868 13.9967 44.5085 14.0617 44.5301 14.1267C44.5517 14.1917 44.5733 14.2567 44.6165 14.3C44.6598 14.3433 44.6814 14.3867 44.703 14.43C44.7246 14.4733 44.7462 14.5167 44.7895 14.56Z" fill="#D4B079"/>
</svg>
